<svg width="200" height="200" viewBox="0 0 200 200" fill="none" xmlns="http://www.w3.org/2000/svg">
<rect width="200" height="200" rx="100" fill="white"/>
<path d="M100.075 168.5C88.175 168.493 76.607 164.933 67.1479 158.366C57.6903 151.799 50.8646 142.589 47.723 132.15C44.58 121.713 45.2929 110.625 49.7542 100.591C54.214 90.5575 62.174 82.1344 72.4103 76.6159V36.1243H45V31H78.0598V79.6198L76.5652 80.3538C67.1106 85.0921 59.6572 92.5556 55.3768 101.569C51.0978 110.583 50.2339 120.635 52.9241 130.142C55.6143 139.65 61.7047 148.076 70.2357 154.091C78.7681 160.107 89.257 163.372 100.052 163.372C110.848 163.372 121.336 160.107 129.869 154.091C138.4 148.076 144.49 139.65 147.18 130.142C149.871 120.635 149.008 110.583 144.728 101.569C140.447 92.5556 132.994 85.0921 123.539 80.3538L122.045 79.6198V31H155V36.1243H127.754V76.6159C137.992 82.1357 145.952 90.5602 150.412 100.594C154.873 110.629 155.584 121.718 152.44 132.157C149.295 142.596 142.468 151.806 133.007 158.372C123.547 164.939 111.976 168.497 100.075 168.5Z" fill="black"/>
</svg>
