<svg width="200" height="250" viewBox="0 0 200 250" fill="none" xmlns="http://www.w3.org/2000/svg">
<path d="M100.136 250C78.5 249.988 57.4673 243.515 40.269 231.574C23.0733 219.635 10.6629 202.889 4.95098 183.909C-0.763694 164.932 0.532526 144.773 8.64394 126.53C16.7526 108.286 31.2255 92.9716 49.8369 82.938V9.31694H0V0H60.1087V88.3996L57.3913 89.7341C40.2011 98.3492 26.6494 111.919 18.8668 128.307C11.0869 144.697 9.51615 162.972 14.4075 180.259C19.2988 197.546 30.3722 212.866 45.883 223.801C61.3966 234.74 80.4673 240.676 100.095 240.676C119.723 240.676 138.793 234.74 154.307 223.801C169.818 212.866 180.891 197.546 185.783 180.259C190.674 162.972 189.106 144.697 181.323 128.307C173.541 111.919 159.989 98.3492 142.799 89.7341L140.082 88.3996V0H200V9.31694H150.462V82.938C169.076 92.974 183.549 108.291 191.658 126.535C199.769 144.781 201.062 164.942 195.345 183.922C189.628 202.901 177.215 219.647 160.014 231.586C142.812 243.525 121.774 249.995 100.136 250Z" fill="white"/>
</svg>
