<svg width="810" height="140" viewBox="0 0 810 140" fill="none" xmlns="http://www.w3.org/2000/svg">
<g clip-path="url(#clip0_910_790)">
<mask id="mask0_910_790" style="mask-type:luminance" maskUnits="userSpaceOnUse" x="3" y="0" width="805" height="140">
<path d="M807.903 0H3V139.903H807.903V0Z" fill="white"/>
</mask>
<g mask="url(#mask0_910_790)">
<path d="M3 0.895938L3.06011 50.6527L8.84446 50.6485L8.81671 29.535L37.1142 29.5097L37.1096 24.9608L8.81209 24.9902L8.78897 5.44066L40.5266 5.41123L40.522 0.862305L3 0.895938Z" fill="white"/>
<path d="M67.6825 29.3577L67.6455 0.836368H73.4299L73.4622 29.1265C73.4622 40.9234 79.5795 46.3175 90.2096 46.3091C100.918 46.3091 107.012 40.8898 106.998 29.0928L106.966 0.802734H112.593L112.626 29.303C112.626 43.5974 104.21 50.9926 90.2142 51.0052C76.218 51.0178 67.6964 43.6352 67.6779 29.3451" fill="white"/>
<path d="M145.667 0.76104L151.451 0.756836L151.507 45.9604L182.149 45.931L182.153 50.4799L145.727 50.5178" fill="white"/>
<path d="M207.348 0.702446L213.132 0.698242L213.183 45.9019L243.825 45.8725L243.834 50.4214L207.403 50.4592" fill="white"/>
<path d="M314.754 0.601562L314.814 50.3541L310.042 50.3583L274.818 10.019L274.869 50.392L269.084 50.4004L269.024 0.643605L273.792 0.6394L309.094 40.9787L309.048 0.605767" fill="white"/>
<path d="M386.963 45.7378L386.968 50.2867L348.271 50.3204L348.216 0.567813L385.738 0.53418L385.742 5.08312L354.005 5.11255L354.023 22.808L382.321 22.7828L382.33 27.2603L354.028 27.2897L354.051 45.7672" fill="white"/>
<path d="M410.961 44.2238L413.222 40.1667C417.134 43.6478 424.093 46.1998 431.287 46.1914C441.524 46.1914 445.982 42.2688 445.977 37.3625C445.977 23.7157 412.274 32.1325 412.251 13.7223C412.251 6.40274 418.493 0.0712064 432.406 0.0585938C438.584 0.0585938 444.997 1.68142 449.371 4.44779L447.424 8.65199C442.947 6.02394 437.744 4.60271 432.415 4.55289C422.405 4.55289 417.952 8.61836 417.962 13.5919C417.962 27.2388 451.66 18.9649 451.678 37.0892C451.678 44.4088 445.283 50.6688 431.292 50.6815C423.085 50.6815 415.03 48.0706 410.947 44.2364" fill="white"/>
<path d="M474.672 44.161L476.933 40.1081C480.845 43.585 487.808 46.1369 494.998 46.1327C505.235 46.1327 509.692 42.2102 509.683 37.3039C509.683 23.6571 475.985 32.0781 475.966 13.6679C475.966 6.34835 482.199 0.0126126 496.117 0C502.294 0 508.703 1.62282 513.086 4.39339L511.135 8.5976C506.659 5.96202 501.453 4.53617 496.122 4.48589C486.116 4.48589 481.668 8.55135 481.672 13.5291C481.672 27.176 515.37 18.8979 515.389 37.0222C515.389 44.3417 508.994 50.606 494.998 50.6186C486.795 50.6186 478.741 48.0036 474.653 44.1694" fill="white"/>
<path d="M543.57 0.382432L549.355 0.374023L549.406 45.5819L580.047 45.5524L580.052 50.1014L543.626 50.135" fill="white"/>
<path d="M637.646 32.4901L624.487 5.77662L611.402 32.5154L637.646 32.4901ZM639.764 36.7532L609.275 36.7826L602.728 50.0805H596.717L621.685 0.302734H627.391L652.466 50.0343H646.372" fill="white"/>
<path d="M717.115 0.214165L717.161 40.5871L681.859 0.247799L677.092 0.252003L677.152 50.0088L682.932 50.0004L682.885 9.63158L718.109 49.9709L722.876 49.9625L722.826 0.209961L717.115 0.214165Z" fill="white"/>
<path d="M778.32 45.3633C792.862 45.3633 802.234 36.9548 802.22 25.0149C802.206 13.0749 792.811 4.69176 778.269 4.70858H762.086L762.132 45.3675L778.32 45.3633ZM756.278 0.180664H778.556C796.071 0.180664 807.884 10.3843 807.903 25.0275C807.921 39.6707 796.126 49.9164 778.616 49.9332L756.334 49.9543" fill="white"/>
<path d="M404.982 139.904C401.301 139.902 397.722 138.801 394.795 136.769C391.869 134.738 389.758 131.889 388.786 128.66C387.813 125.432 388.034 122.003 389.414 118.899C390.794 115.796 393.257 113.19 396.423 111.483V98.959H387.943V97.374H398.171V112.412L397.709 112.639C394.784 114.105 392.478 116.414 391.154 119.201C389.83 121.99 389.563 125.099 390.395 128.039C391.227 130.98 393.111 133.587 395.751 135.447C398.39 137.308 401.635 138.318 404.975 138.318C408.315 138.318 411.56 137.308 414.199 135.447C416.839 133.587 418.723 130.98 419.555 128.039C420.387 125.099 420.121 121.99 418.796 119.201C417.472 116.414 415.166 114.105 412.241 112.639L411.779 112.412V97.374H421.974V98.959H413.545V111.483C416.713 113.191 419.175 115.796 420.555 118.9C421.935 122.004 422.155 125.434 421.182 128.663C420.209 131.891 418.097 134.74 415.17 136.771C412.244 138.802 408.664 139.903 404.982 139.904Z" fill="white"/>
<path d="M735.615 82.9443H74.3174V84.1804H735.615V82.9443Z" fill="white"/>
</g>
</g>
<defs>
<clipPath id="clip0_910_790">
<rect width="805" height="140" fill="white" transform="translate(3)"/>
</clipPath>
</defs>
</svg>
